<?xml version="1.0" encoding="UTF-8" standalone="no"?>
<svg
   xmlns:dc="http://purl.org/dc/elements/1.1/"
   xmlns:cc="http://creativecommons.org/ns#"
   xmlns:rdf="http://www.w3.org/1999/02/22-rdf-syntax-ns#"
   xmlns:svg="http://www.w3.org/2000/svg"
   xmlns="http://www.w3.org/2000/svg"
   viewBox="0 0 75.590668 75.590668"
   height="75.590668"
   width="75.590668"
   xml:space="preserve"
   id="svg2"
   version="1.1"><metadata
     id="metadata8"><rdf:RDF><cc:Work
         rdf:about=""><dc:format>image/svg+xml</dc:format><dc:type
           rdf:resource="http://purl.org/dc/dcmitype/StillImage" /></cc:Work></rdf:RDF></metadata><defs
     id="defs6" /><g
     transform="matrix(1.3333333,0,0,-1.3333333,0,75.590667)"
     id="g10"><g
       id="g12"><g
         id="g14"><g
           id="g16"><path
             id="path18"
             style="fill:#004c00;fill-opacity:1;fill-rule:nonzero;stroke:none"
             d="m 0,3.9851 v 48.72341 c 0,2.20094 1.78416,3.98511 3.9851,3.98511 h 48.72341 c 2.20094,0 3.98511,-1.78417 3.98511,-3.98511 V 3.9851 C 56.69362,1.78416 54.90945,0 52.70851,0 H 3.9851 C 1.78416,0 0,1.78416 0,3.9851 Z" /></g><g
           id="g20"><g
             id="g22"><g
               id="g24"><path
                 id="path26"
                 style="fill:#86592d;fill-opacity:1;fill-rule:nonzero;stroke:none"
                 d="m 46.5166,-2.10423 c 1.54187,0.27185 1.95436,5.2417 0.92131,11.1006 -1.03305,5.8589 -3.12039,10.38797 -4.66228,10.11612 C 41.23376,18.84062 40.82127,13.87076 41.85432,8.01186 42.88737,2.15295 44.97473,-2.3761 46.5166,-2.10423 Z" /></g><g
               id="g28"><path
                 id="path30"
                 style="fill:#86592d;fill-opacity:1;fill-rule:nonzero;stroke:none"
                 d="M 13.91797,19.11249 C 12.37608,19.38434 10.28874,14.85527 9.25569,8.99637 8.22264,3.13747 8.63513,-1.83238 10.177,-2.10423 c 1.54187,-0.27187 3.62923,4.25718 4.66228,10.11609 1.03305,5.8589 0.62056,10.82876 -0.92131,11.10063 z" /></g><g
               id="g32"><path
                 id="path34"
                 style="fill:#86592d;fill-opacity:1;fill-rule:nonzero;stroke:none"
                 d="m 45.21318,11.90561 c 0,-18.70899 -6.80339,-20.97679 -16.86638,-20.97679 -10.06299,0 -16.86638,2.2678 -16.86638,20.97679 -0.28331,18.709 7.37003,33.73276 16.86638,33.73276 9.49635,0 17.14969,-15.02376 16.86638,-33.73276 z" /></g><g
               id="g36"><path
                 id="path38"
                 style="fill:#86592d;fill-opacity:1;fill-rule:nonzero;stroke:none"
                 d="m 10.3156,36.19867 c 0,0 -3.47284,5.19606 -1.1285,12.40173 9.9527,-8.57463 28.3667,-8.57463 38.3194,0 C 49.85085,41.39473 46.378,36.19867 46.378,36.19867" /></g><g
               id="g40"><path
                 id="path42"
                 style="fill:#c2ac96;fill-opacity:1;fill-rule:nonzero;stroke:none"
                 d="m 40.39427,0 c 0,-5.38596 -5.10264,-6.51964 -12.04747,-6.51964 -6.94482,0 -12.04747,1.13368 -12.04747,6.51964 0,8.78743 5.66927,13.60634 12.04747,13.60634 6.3782,0 12.04747,-4.81891 12.04747,-13.60634 z" /></g><g
               id="g44"><path
                 id="path46"
                 style="fill:#86592d;fill-opacity:1;fill-rule:nonzero;stroke:none"
                 d="m 48.18947,29.76424 c 0,8.61067 -8.88373,15.59083 -19.84267,15.59083 -10.95894,0 -19.84266,-6.98016 -19.84266,-15.59083 0,-8.61068 8.88372,-15.59084 19.84266,-15.59084 10.95894,0 19.84267,6.98016 19.84267,15.59084 z" /></g><g
               id="g48"><path
                 id="path50"
                 style="fill:#f2f2f2;fill-opacity:1;fill-rule:nonzero;stroke:none"
                 d="m 26.64607,31.18166 c 0,3.44426 -2.79207,6.23631 -6.23633,6.23631 -3.44427,0 -6.23632,-2.79205 -6.23632,-6.23631 0,-3.44428 2.79205,-6.23633 6.23632,-6.23633 3.44426,0 6.23633,2.79205 6.23633,6.23633 z" /></g><g
               id="g52"><path
                 id="path54"
                 style="fill:#f2f2f2;fill-opacity:1;fill-rule:nonzero;stroke:none"
                 d="m 42.52019,31.18166 c 0,3.44426 -2.79206,6.23631 -6.23633,6.23631 -3.44426,0 -6.23631,-2.79205 -6.23631,-6.23631 0,-3.44428 2.79205,-6.23633 6.23631,-6.23633 3.44427,0 6.23633,2.79205 6.23633,6.23633 z" /></g><g
               id="g56"><path
                 id="path58"
                 style="fill:#392613;fill-opacity:1;fill-rule:nonzero;stroke:none"
                 d="m 24.66159,31.18166 c 0,2.34824 -1.90359,4.25183 -4.25185,4.25183 -2.34824,0 -4.25184,-1.90359 -4.25184,-4.25183 0,-2.34826 1.9036,-4.25185 4.25184,-4.25185 2.34826,0 4.25185,1.90359 4.25185,4.25185 z" /></g><g
               id="g60"><path
                 id="path62"
                 style="fill:#392613;fill-opacity:1;fill-rule:nonzero;stroke:none"
                 d="m 40.5357,31.18166 c 0,2.34824 -1.90359,4.25183 -4.25184,4.25183 -2.34825,0 -4.25185,-1.90359 -4.25185,-4.25183 0,-2.34826 1.9036,-4.25185 4.25185,-4.25185 2.34825,0 4.25184,1.90359 4.25184,4.25185 z" /></g><g
               id="g64"><path
                 id="path66"
                 style="fill:#ffffff;fill-opacity:1;fill-rule:nonzero;stroke:none"
                 d="m 36.28386,32.31534 c 0,0.46965 -0.38072,0.85037 -0.85037,0.85037 -0.46965,0 -0.85036,-0.38072 -0.85036,-0.85037 0,-0.46965 0.38071,-0.85037 0.85036,-0.85037 0.46965,0 0.85037,0.38072 0.85037,0.85037 z" /></g><g
               id="g68"><path
                 id="path70"
                 style="fill:#ffffff;fill-opacity:1;fill-rule:nonzero;stroke:none"
                 d="m 20.40974,32.31534 c 0,0.46965 -0.38072,0.85037 -0.85037,0.85037 -0.46965,0 -0.85037,-0.38072 -0.85037,-0.85037 0,-0.46965 0.38072,-0.85037 0.85037,-0.85037 0.46965,0 0.85037,0.38072 0.85037,0.85037 z" /></g><g
               id="g72"><path
                 id="path74"
                 style="fill:#ff8000;fill-opacity:1;fill-rule:nonzero;stroke:none"
                 d="m 28.3468,25.51195 -2.83485,-2.83441 2.83485,-4.25229 2.83486,4.25229 z" /></g><g
               id="g76"><path
                 id="path78"
                 style="fill:#ff8000;fill-opacity:1;fill-rule:nonzero;stroke:none"
                 d="m 34.15794,-8.50412 c 0,1.56566 -0.38072,2.83485 -0.85037,2.83485 -0.46965,0 -0.85037,-1.26919 -0.85037,-2.83485 0,-1.56564 0.38072,-2.83484 0.85037,-2.83484 0.46965,0 0.85037,1.2692 0.85037,2.83484 z" /></g><g
               id="g80"><path
                 id="path82"
                 style="fill:#ff8000;fill-opacity:1;fill-rule:nonzero;stroke:none"
                 d="m 35.52408,-7.92952 c -0.53549,1.47122 -1.32735,2.53366 -1.76866,2.37303 -0.44132,-0.16061 -0.36498,-1.48349 0.17051,-2.95473 0.53548,-1.47123 1.32735,-2.53366 1.76865,-2.37304 0.44132,0.16063 0.36499,1.4835 -0.1705,2.95474 z" /></g><g
               id="g84"><path
                 id="path86"
                 style="fill:#ff8000;fill-opacity:1;fill-rule:nonzero;stroke:none"
                 d="m 36.7934,-7.10715 c -1.00638,1.19935 -2.11387,1.92687 -2.47362,1.62499 -0.35976,-0.30188 0.16442,-1.51884 1.17081,-2.71819 1.00639,-1.19934 2.11387,-1.92686 2.47363,-1.62498 0.35975,0.30188 -0.16443,1.51884 -1.17082,2.71818 z" /></g><g
               id="g88"><path
                 id="path90"
                 style="fill:#ff8000;fill-opacity:1;fill-rule:nonzero;stroke:none"
                 d="m 24.2364,-8.50412 c 0,1.56566 -0.38072,2.83485 -0.85037,2.83485 -0.46965,0 -0.85037,-1.26919 -0.85037,-2.83485 0,-1.56564 0.38072,-2.83484 0.85037,-2.83484 0.46965,0 0.85037,1.2692 0.85037,2.83484 z" /></g><g
               id="g92"><path
                 id="path94"
                 style="fill:#ff8000;fill-opacity:1;fill-rule:nonzero;stroke:none"
                 d="m 22.76767,-8.51122 c 0.53549,1.47124 0.61183,2.79412 0.17052,2.95473 -0.44132,0.16063 -1.23317,-0.90181 -1.76866,-2.37303 -0.5355,-1.47124 -0.61182,-2.79411 -0.17051,-2.95474 0.44132,-0.16062 1.23318,0.90181 1.76865,2.37304 z" /></g><g
               id="g96"><path
                 id="path98"
                 style="fill:#ff8000;fill-opacity:1;fill-rule:nonzero;stroke:none"
                 d="m 21.20302,-8.20035 c 1.00638,1.19935 1.53056,2.41631 1.17081,2.71819 -0.35976,0.30188 -1.46724,-0.42564 -2.47363,-1.62499 -1.00639,-1.19934 -1.53056,-2.4163 -1.17081,-2.71818 0.35975,-0.30188 1.46723,0.42564 2.47363,1.62498 z" /></g></g><g
             id="g100" /></g></g></g></g></svg>